<?xml version="1.0" encoding="UTF-8"?>
<svg width="512" height="512" viewBox="0 0 512 512" fill="none" xmlns="http://www.w3.org/2000/svg">
  <!-- Background Circle -->
  <circle cx="256" cy="256" r="248" fill="#4F46E5" opacity="0.1"/>
  
  <!-- Brain Circuit Pattern -->
  <path d="M256 140C207.4 140 168 179.4 168 228C168 266.6 193.4 299.5 229.1 311.5C239.6 315.5 246 325.9 246 337.4V372" 
        stroke="#4F46E5" stroke-width="24" stroke-linecap="round"/>
  <path d="M256 140C304.6 140 344 179.4 344 228C344 266.6 318.6 299.5 282.9 311.5C272.4 315.5 266 325.9 266 337.4V372" 
        stroke="#4F46E5" stroke-width="24" stroke-linecap="round"/>
  
  <!-- Calendar Elements -->
  <rect x="196" y="372" width="120" height="24" rx="12" fill="#4F46E5"/>
  <rect x="226" y="332" width="60" height="24" rx="12" fill="#4F46E5"/>
  
  <!-- Connection Dots -->
  <circle cx="256" cy="140" r="12" fill="#4F46E5"/>
  <circle cx="256" cy="228" r="12" fill="#4F46E5"/>
</svg> 